<svg width="110" height="28" viewBox="0 0 110 28" fill="none" xmlns="http://www.w3.org/2000/svg">
<path fill-rule="evenodd" clip-rule="evenodd" d="M13.0143 0.00963912C10.1289 0.301791 7.61303 1.30142 5.42173 3.02642C4.802 3.51429 3.67576 4.63559 3.18574 5.25261C1.62996 7.21167 0.65406 9.45015 0.256911 11.9705C0.167894 12.5354 0.153809 12.8136 0.153809 14.0039C0.153809 15.1941 0.167894 15.4724 0.256911 16.0373C0.65406 18.5576 1.62996 20.7961 3.18574 22.7552C3.67576 23.3722 4.802 24.4935 5.42173 24.9813C7.38941 26.5303 9.63775 27.5019 12.1692 27.8974C12.7365 27.986 13.016 28 14.2115 28C15.407 28 15.6865 27.986 16.2538 27.8974C18.7827 27.5024 21.0357 26.5287 23.0013 24.9813C23.621 24.4935 24.7473 23.3722 25.2373 22.7552C26.7931 20.7961 27.769 18.5576 28.1661 16.0373C28.2551 15.4724 28.2692 15.1941 28.2692 14.0039C28.2692 12.8136 28.2551 12.5354 28.1661 11.9705C27.769 9.45015 26.7931 7.21167 25.2373 5.25261C24.7473 4.63559 23.621 3.51429 23.0013 3.02642C21.3757 1.7467 19.5731 0.866835 17.5686 0.374571C16.4278 0.0944332 15.7958 0.0200631 14.4228 0.00449725C13.7514 -0.00312206 13.1176 -0.000831591 13.0143 0.00963912ZM13.5777 3.65415C11.7295 3.8364 10.4916 4.20508 9.09397 4.98944C6.2358 6.59352 4.32113 9.43847 3.87656 12.7418C3.79018 13.3837 3.80262 14.7503 3.90107 15.4272C4.57983 20.0954 8.22197 23.6663 12.9439 24.2933C13.5176 24.3695 14.9054 24.3695 15.4792 24.2933C15.7245 24.2607 16.1637 24.1818 16.4552 24.1178C20.3937 23.2543 23.5027 20.159 24.37 16.2377C24.5497 15.4253 24.6057 14.8947 24.6057 14.0039C24.6057 13.1131 24.5497 12.5824 24.37 11.7701C23.4402 7.56655 19.9529 4.35087 15.6669 3.74493C15.1676 3.67434 13.9219 3.62021 13.5777 3.65415ZM65.8095 5.65733C63.889 5.93148 62.2877 6.76311 60.9158 8.19886C59.7657 9.40261 59.0643 10.7878 58.7577 12.4613C58.6164 13.233 58.6164 14.7748 58.7577 15.5464C59.1274 17.5645 60.0921 19.2011 61.7014 20.5406C62.9678 21.5945 64.3588 22.1819 66.0439 22.3741C66.8065 22.4611 68.1353 22.4063 68.841 22.2586C70.5622 21.8986 71.8923 21.1501 73.1807 19.8165C74.7145 18.2287 75.4812 16.2916 75.4812 14.0039C75.4812 12.5783 75.207 11.3775 74.6113 10.1942C74.2231 9.42323 73.8043 8.83682 73.1807 8.19128C71.8956 6.86108 70.5636 6.11126 68.841 5.74824C68.3592 5.64671 68.1233 5.62619 67.265 5.61124C66.5741 5.59922 66.1148 5.61376 65.8095 5.65733ZM81.5847 5.61451C81.546 5.62208 81.3558 5.65377 81.1622 5.685C79.868 5.89352 78.5654 6.68112 77.8785 7.67032C77.3668 8.40729 77.1751 9.02081 77.1372 10.0426C77.108 10.8306 77.1621 11.2679 77.3563 11.8144C77.6239 12.5672 78.0766 13.1186 78.8495 13.6332C79.7123 14.2076 80.4612 14.5338 82.0161 15.0127C84.9588 15.919 85.6955 16.4213 85.7536 17.561C85.8079 18.6267 85.2383 19.3278 84.0406 19.6699C83.7204 19.7614 83.564 19.7747 82.8054 19.775C82.0576 19.7753 81.8781 19.7606 81.5143 19.6694C80.3077 19.3669 79.4231 18.6122 78.9086 17.4465C78.8218 17.2499 78.7387 17.0898 78.724 17.0907C78.6305 17.0967 76.4878 18.4032 76.4759 18.4615C76.4495 18.5907 76.7861 19.286 77.1087 19.7684C77.9847 21.0785 79.3424 21.9381 81.0906 22.2893C81.7885 22.4295 83.5162 22.4412 84.2139 22.3105C85.9689 21.9815 87.3689 21.0328 88.0142 19.7351C88.3709 19.0178 88.5329 18.0277 88.4409 17.1272C88.3333 16.074 88.1279 15.6194 87.4371 14.9053C86.9106 14.3611 86.5731 14.1026 86.0466 13.84C85.5359 13.5855 84.3124 13.1176 83.3688 12.816C82.2298 12.4519 81.5916 12.2095 81.0571 11.9377C80.4714 11.64 80.177 11.3773 79.9781 10.9751C79.8367 10.6892 79.8241 10.6271 79.8241 10.2186C79.8242 9.50316 80.055 9.04175 80.5988 8.66985C81.353 8.15403 82.7594 8.05507 83.76 8.44735C84.5284 8.74862 85.2223 9.41799 85.6254 10.247C85.6961 10.3926 85.7488 10.4489 85.7971 10.4305C85.9 10.3912 87.892 9.23616 87.9444 9.18539C88.0041 9.12752 87.7977 8.71117 87.4616 8.21171C86.5238 6.81784 84.9998 5.8752 83.3046 5.6405C82.9827 5.5959 81.7737 5.57763 81.5847 5.61451ZM32.5223 11.6082C32.5226 17.8342 32.5214 17.8039 32.7822 18.6318C33.372 20.5049 34.9201 21.8182 37.0908 22.2868C37.7431 22.4276 39.4952 22.4407 40.1455 22.3096C41.3834 22.0602 42.3707 21.569 43.1784 20.8006C43.9819 20.0363 44.4281 19.2409 44.6966 18.094C44.7934 17.6806 44.7953 17.5718 44.8107 11.7718L44.8263 5.87039H43.4883H42.1503L42.1358 11.5381L42.1213 17.2059L42.018 17.5705C41.7076 18.6656 40.9984 19.369 39.8995 19.6718C39.593 19.7562 39.4116 19.7706 38.649 19.771C37.8081 19.7714 37.7327 19.764 37.3354 19.6427C36.7446 19.4622 36.4954 19.3167 36.0854 18.913C35.8161 18.6478 35.6872 18.4753 35.5607 18.2109C35.1997 17.456 35.2266 17.9647 35.2103 11.5849L35.1957 5.87039H33.8588H32.522L32.5223 11.6082ZM46.56 7.15585V8.44132H48.8606H51.1611V15.2894V22.1374H52.4992H53.8373V15.2894V8.44132H56.1378H58.4384V7.15585V5.87039H52.4992H46.56V7.15585ZM90.646 14.0039V22.1374H91.9841H93.3222V14.0039V5.87039H91.9841H90.646V14.0039ZM100.876 5.99832C100.814 6.15791 95.2233 21.5518 95.1037 21.892L95.0175 22.1374H96.4823H97.9471L98.5103 20.502L99.0736 18.8667L102.524 18.8666L105.975 18.8665L106.539 20.4903L107.102 22.114L108.551 22.1264L110 22.1387L109.971 22.0329C109.955 21.9747 108.637 18.3195 107.042 13.9104L104.142 5.89376L102.534 5.88146L100.926 5.86917L100.876 5.99832ZM9.09397 11.615C9.09397 15.1894 9.11496 15.801 9.26299 16.5419C9.62789 18.3684 10.7048 19.4523 12.548 19.8482C13.1419 19.9757 14.6417 20.0272 15.3136 19.943C17.2841 19.696 18.5096 18.7522 19.0191 17.089C19.2984 16.1776 19.2948 16.2391 19.3156 11.9588L19.3348 8.02062H17.8091H16.2833L16.264 11.7952C16.2495 14.6444 16.2301 15.6271 16.185 15.8035C16.0102 16.4868 15.6218 16.9897 15.1159 17.1878C14.7499 17.3311 13.7565 17.3443 13.3899 17.2107C12.6022 16.9236 12.274 16.3429 12.1926 15.0925C12.1679 14.7122 12.1472 12.9656 12.1467 11.2109L12.1457 8.02062H10.6198H9.09397V11.615ZM66.0342 8.2801C65.2341 8.40411 64.2845 8.80139 63.6498 9.27757C63.2762 9.55785 62.6897 10.1441 62.4054 10.5214C61.9514 11.1239 61.5685 12.0308 61.4184 12.8588C61.3164 13.4217 61.3164 14.586 61.4184 15.1489C61.5685 15.977 61.9514 16.8838 62.4054 17.4863C62.6897 17.8637 63.2762 18.4499 63.6498 18.7302C65.2719 19.9472 67.7415 20.1511 69.6552 19.226C70.7585 18.6927 71.7919 17.619 72.2954 16.483C72.9571 14.9901 72.9571 13.0177 72.2954 11.5248C71.667 10.107 70.3436 8.92648 68.8693 8.46852C68.0464 8.21288 66.9414 8.13944 66.0342 8.2801ZM101.255 12.6784C100.572 14.6231 100.006 16.2427 99.9974 16.2777C99.9847 16.3305 100.407 16.3411 102.521 16.3411C103.917 16.3411 105.06 16.3277 105.06 16.3113C105.06 16.2395 102.551 9.14248 102.525 9.14248C102.51 9.14248 101.938 10.7336 101.255 12.6784Z" fill="#878787"/>
</svg>
