<svg width="71" height="28" viewBox="0 0 71 28" fill="none" xmlns="http://www.w3.org/2000/svg">
<path fill-rule="evenodd" clip-rule="evenodd" d="M28.8342 0.825149C26.9089 1.27681 25.33 1.64804 25.3256 1.65005C25.3165 1.65425 24.5168 5.94475 24.5168 5.98924C24.5168 6.00521 23.9501 6.01828 23.2574 6.01828H21.9981L21.9741 6.12332C21.9608 6.18111 21.7492 7.34176 21.5039 8.70259C21.2585 10.0634 21.0471 11.2132 21.0341 11.2578C21.012 11.3329 21.0997 11.3396 22.2626 11.3511L23.5149 11.3636L22.7346 15.495C21.9125 19.848 21.751 20.7849 21.6719 21.6573C21.6021 22.4274 21.6114 23.5682 21.6916 24.0626C22.0304 26.1517 23.424 27.4598 25.7764 27.8967C26.018 27.9416 26.5618 27.9797 27.1639 27.9941C28.5739 28.0276 29.8125 27.9185 30.8274 27.6714C31.1931 27.5823 31.2361 27.5603 31.2589 27.4509C31.3077 27.2169 32.1247 22.1468 32.1248 22.0774C32.1248 22.018 32.0594 22.012 31.6931 22.038C31.0106 22.0864 30.3453 22.0818 30.0466 22.0266C29.2067 21.8713 28.8109 21.3221 28.8109 20.3122C28.8109 19.592 28.9159 18.9479 29.6682 15.0516L30.3803 11.3636L32.4625 11.3514L34.5447 11.3393L34.5709 11.2114C34.5853 11.141 34.7972 10.0016 35.0418 8.67924C35.2864 7.35693 35.4984 6.21748 35.5129 6.14712L35.5393 6.01926L33.4697 6.00707L31.4001 5.99494L31.94 2.99552C32.3898 0.496776 32.4678 -0.00325199 32.4074 1.58626e-05C32.3675 0.00220999 30.7596 0.373531 28.8342 0.825149ZM44.8438 5.60438C38.9875 6.10754 34.6065 10.8489 33.8284 17.5258C33.4169 21.0572 34.1559 23.74 36.0664 25.6513C37.6914 27.2768 39.7937 28.019 42.5712 27.9478C44.374 27.9015 45.7853 27.5653 47.3176 26.817C50.9716 25.0326 53.4572 21.3262 54.1278 16.6621C54.296 15.4929 54.3475 13.8685 54.2461 12.9373C54.0983 11.5798 53.6185 10.1518 52.9646 9.12274C51.3279 6.54725 48.4388 5.29552 44.8438 5.60438ZM63.8215 5.59845C61.4443 5.79793 59.3919 6.58917 57.9235 7.87213C56.7973 8.85608 56.0089 10.2021 55.6871 11.6903C55.5676 12.243 55.5202 13.5324 55.6008 14.0359C55.7728 15.1093 56.2875 16.0984 57.1468 17.0065C57.8456 17.745 58.4793 18.2175 59.8297 19.0068C61.4267 19.9403 61.9238 20.4756 61.9222 21.2605C61.9194 22.6762 60.1976 23.1033 57.4227 22.3765C56.7426 22.1984 55.8166 21.8663 55.1679 21.568C54.9448 21.4654 54.7618 21.3962 54.7614 21.4143C54.7608 21.4324 54.3958 22.5554 53.95 23.9099L53.1395 26.3725L53.4771 26.5829C54.3136 27.1044 55.6802 27.5443 57.1894 27.7779C58.0887 27.9171 60.0148 27.9514 61.0167 27.8459C63.6489 27.5691 65.6604 26.7262 67.089 25.3015C68.0935 24.2997 68.6423 23.2718 68.9525 21.8108C69.0908 21.1597 69.1287 19.9165 69.0278 19.3394C68.7945 18.0051 67.9786 16.7646 66.601 15.6499C66.1482 15.2835 64.9242 14.4696 64.4007 14.1868C63.0139 13.4377 62.4103 12.7508 62.5532 12.0845C62.6587 11.5922 62.9142 11.2849 63.3946 11.0721C63.8065 10.8897 64.1973 10.8284 64.9548 10.8275C66.0465 10.8262 67.1268 11.0254 68.1153 11.4103C68.357 11.5044 68.5958 11.5849 68.646 11.5892C68.7269 11.5961 68.8204 11.3276 69.4724 9.2161C69.8767 7.90663 70.2206 6.77735 70.2367 6.70658C70.2644 6.58488 70.2488 6.57022 69.9471 6.43358C69.1605 6.07743 68.0814 5.80699 66.8978 5.66946C66.1335 5.58062 64.4868 5.54262 63.8215 5.59845ZM4.79684 6.07663C4.76878 6.15805 3.69969 11.7803 3.69969 11.8465C3.69969 11.8868 4.63193 11.9004 7.3909 11.9004C9.42108 11.9004 11.0752 11.9166 11.0666 11.9363C11.058 11.956 10.7675 12.2329 10.4209 12.5516C9.45389 13.4408 7.80953 15.1058 7.05292 15.9619C6.6785 16.3855 5.15857 18.1692 3.67528 19.9256L0.978441 23.1192L0.612508 25.2943C0.411245 26.4906 0.246388 27.4957 0.246155 27.5277C0.245828 27.5742 1.9196 27.5861 8.46055 27.5861C12.9787 27.5861 16.6754 27.5747 16.6754 27.5607C16.6754 27.5249 17.7489 21.8908 17.7801 21.7623L17.8057 21.6573H13.6893C11.4254 21.6573 9.57996 21.6405 9.58855 21.62C9.59709 21.5995 9.91929 21.2986 10.3045 20.9513C11.9467 19.4708 12.7033 18.6435 16.5108 14.1646C17.9951 12.4186 19.2615 10.9336 19.3252 10.8647C19.4306 10.7505 19.4758 10.537 19.83 8.48383C20.0439 7.2433 20.2274 6.18111 20.2377 6.12332L20.2564 6.01828H12.5367C6.40274 6.01828 4.81285 6.03028 4.79684 6.07663ZM44.6338 11.0142C43.4281 11.2238 42.3883 12.4951 41.6559 14.6547C41.0955 16.3075 40.815 18.0433 40.8655 19.5468C40.8939 20.3909 40.9867 20.8237 41.2578 21.3766C41.7953 22.4726 43.0058 22.8499 44.1437 22.2761C44.4336 22.1299 45.1073 21.4592 45.3748 21.0504C46.4019 19.4808 47.1531 16.5445 47.1662 14.0479C47.1698 13.3596 47.1546 13.1667 47.0701 12.8235C46.8091 11.7634 46.207 11.1454 45.3091 11.0156C44.9456 10.9631 44.9283 10.9631 44.6338 11.0142Z" fill="#878787"/>
</svg>
