<svg width="121" height="28" viewBox="0 0 121 28" fill="none" xmlns="http://www.w3.org/2000/svg">
<path fill-rule="evenodd" clip-rule="evenodd" d="M0.753845 7.18332C0.753845 12.359 0.768222 14.381 0.805331 14.4182C0.833664 14.4465 3.93123 16.1689 7.68882 18.2457L14.5207 22.0217L13.0169 23.5293L11.513 25.037L13.0261 26.5185C13.8582 27.3333 14.5532 28 14.5704 28C14.5876 28 15.2826 27.3333 16.1147 26.5185L17.6278 25.037L16.1239 23.5293L14.6201 22.0217L21.452 18.2457C25.2096 16.1689 28.3071 14.4465 28.3355 14.4182C28.3726 14.381 28.387 12.359 28.387 7.18332C28.387 3.23249 28.3763 0 28.3632 0C28.3502 0 25.2577 1.99064 21.4911 4.42367C17.7245 6.85671 14.6101 8.84739 14.5704 8.84739C14.5307 8.84739 11.4164 6.85671 7.64971 4.42367C3.88306 1.99064 0.790627 0 0.777557 0C0.764534 0 0.753845 3.23249 0.753845 7.18332ZM50.3954 6.33683C49.5318 6.44528 48.6181 6.74588 47.9682 7.13531C46.3014 8.13406 45.2495 9.89677 44.8819 12.3069C44.7618 13.0942 44.7622 14.9659 44.8827 15.7631C45.4641 19.6119 47.7312 21.7193 51.2883 21.7178C52.381 21.7174 53.3059 21.5281 54.1406 21.1342C55.8952 20.306 57.0826 18.641 57.5361 16.3731C57.6991 15.5576 57.7471 15.0181 57.7471 14.0015C57.7471 12.1744 57.4847 10.8773 56.8563 9.598C55.7916 7.431 53.831 6.28601 51.2296 6.31226C50.8478 6.31609 50.4724 6.32716 50.3954 6.33683ZM33.4748 14.0117V21.3912H35.0385H36.6022V18.3786V15.3661H38.7961H40.9899V14.2219V13.0776H38.7961H36.6022V10.9992V8.92077H39.1228C40.6372 8.92077 41.6434 8.90349 41.6434 8.87752C41.6434 8.85375 41.7169 8.34479 41.8068 7.7465C41.8966 7.14824 41.9701 6.65274 41.9701 6.64546C41.9701 6.63817 40.0587 6.63219 37.7225 6.63219H33.4748V14.0117ZM60.6411 6.6704C60.6411 6.69142 61.4924 8.24685 62.5328 10.1269L64.4244 13.5452L62.3634 17.4331C61.2298 19.5715 60.2933 21.3369 60.2822 21.3561C60.2712 21.3754 61.0144 21.3907 61.9337 21.3902L63.6052 21.3893L64.9316 18.4945C65.6611 16.9023 66.269 15.6107 66.2825 15.6242C66.296 15.6377 66.9075 16.9356 67.6412 18.5083L68.9753 21.3678L70.6948 21.38C72.0647 21.3899 72.4095 21.3803 72.3905 21.3333C72.3775 21.3009 71.4203 19.5107 70.2635 17.3551C69.1067 15.1995 68.1675 13.4236 68.1765 13.4085C68.4791 12.9006 71.9838 6.6994 71.9838 6.67194C71.9838 6.65008 71.248 6.63219 70.3486 6.63219H68.7134L67.8405 8.41868C67.3603 9.40123 66.8201 10.5054 66.64 10.8723L66.3125 11.5395L65.1689 9.08652L64.0253 6.63359L62.3332 6.63289C61.4026 6.63252 60.6411 6.64938 60.6411 6.6704ZM79.0321 14.0817V21.3912H79.662H80.2918L80.3038 17.8299L80.3157 14.2686L83.7582 14.2566L87.2007 14.2446V17.8192V21.3938L87.8425 21.3808L88.4843 21.3678V14.0817V6.79566L87.8425 6.78268L87.2007 6.76969V9.97062V13.1716L83.7582 13.1596L80.3157 13.1476L80.3037 9.95997L80.2917 6.77231H79.6619H79.0321V14.0817ZM95.0892 12.1373C95.0892 16.7139 95.0995 17.5633 95.1599 17.9172C95.3647 19.1199 95.9028 20.0811 96.7229 20.7094C97.4669 21.2795 98.3063 21.5512 99.5002 21.6085C101.045 21.6827 102.293 21.299 103.152 20.4858C103.78 19.8903 104.166 19.2317 104.413 18.3319L104.541 17.8649L104.554 12.3173L104.567 6.76965L103.924 6.78268L103.281 6.79566L103.257 12.2602L103.233 17.7248L103.129 18.0984C103.072 18.3039 102.93 18.6655 102.814 18.9019C102.422 19.6984 101.786 20.1827 100.854 20.3938C100.302 20.5187 99.2665 20.5079 98.7126 20.3713C97.5071 20.0742 96.7811 19.292 96.4742 17.9596C96.3794 17.5478 96.3767 17.4124 96.3616 12.1551L96.3461 6.77231H95.7177H95.0892V12.1373ZM111.168 6.83069C111.156 6.86283 111.151 10.1468 111.158 14.1284L111.17 21.3678L113.34 21.3816C114.652 21.3899 115.722 21.3753 116.045 21.3447C118.3 21.1312 119.688 20.201 120.157 18.5876C120.286 18.1425 120.335 17.0311 120.249 16.4954C120.125 15.7277 119.827 15.1298 119.339 14.6736C118.825 14.1919 118.046 13.8059 117.39 13.7074C117.124 13.6676 117.137 13.6219 117.435 13.5469C117.863 13.439 118.382 13.1267 118.755 12.752C119.153 12.3531 119.353 12.0115 119.509 11.4646C119.649 10.9761 119.66 9.9538 119.531 9.48123C119.373 8.90335 119.149 8.5141 118.737 8.10342C117.993 7.36272 116.912 6.95843 115.301 6.81944C114.478 6.74844 111.196 6.75736 111.168 6.83069ZM112.453 10.5321V13.171H114.196C115.787 13.171 115.971 13.1628 116.308 13.0773C117.802 12.6983 118.567 11.4528 118.268 9.88739C118.054 8.76888 117.248 8.15867 115.699 7.94313C115.502 7.91571 114.691 7.89324 113.897 7.89324H112.453V10.5321ZM50.8389 8.68383C49.4004 8.88555 48.5694 9.8928 48.2166 11.8623C48.079 12.6305 48.0426 14.6921 48.1503 15.623C48.3656 17.4843 48.9483 18.587 49.9753 19.0767C50.4246 19.291 50.7324 19.3545 51.3056 19.3514C52.8835 19.343 53.84 18.4389 54.2378 16.5802C54.4056 15.7963 54.4516 15.2438 54.4516 14.0117C54.4516 12.7796 54.4056 12.2271 54.2378 11.4431C53.8549 9.65395 52.9637 8.76155 51.469 8.67057C51.2636 8.65805 50.9801 8.66403 50.8389 8.68383ZM112.453 17.2775V20.3169L113.865 20.3165C116.011 20.3159 116.756 20.221 117.522 19.8505C118.189 19.5274 118.588 19.0774 118.833 18.3706C118.947 18.0419 118.96 17.9391 118.961 17.3511C118.962 16.8729 118.941 16.6157 118.881 16.3937C118.607 15.3698 117.901 14.7023 116.748 14.3763C116.422 14.2843 116.259 14.2759 114.425 14.2577L112.453 14.2381V17.2775Z" fill="#878787"/>
</svg>
