<svg width="110" height="28" viewBox="0 0 110 28" fill="none" xmlns="http://www.w3.org/2000/svg">
<path fill-rule="evenodd" clip-rule="evenodd" d="M94.3648 0.0318536C89.1262 0.562465 84.592 3.93874 82.6397 8.76249C82.0921 10.1155 81.7855 11.422 81.6641 12.9192C81.6299 13.3409 81.6177 15.4915 81.6272 19.4111L81.6414 25.2726L81.7529 25.5995C82.0813 26.5631 82.6581 27.2328 83.5264 27.6588C84.2807 28.0288 83.8633 28.01 90.9177 27.9923C97.7141 27.9753 97.3252 27.989 98.6745 27.7197C101.253 27.2053 103.82 25.8318 105.735 23.9421C107.941 21.7659 109.335 19.0185 109.775 15.9784C109.87 15.3282 109.87 12.6586 109.775 12.0085C109.127 7.54018 106.346 3.64782 102.305 1.55279C100.902 0.825365 99.3956 0.349865 97.687 0.0949516C97.0983 0.00714686 95.0019 -0.0326922 94.3648 0.0318536ZM24.9753 12.4529V21.1875L26.2123 21.175L27.4493 21.1626L27.4612 12.4405L27.4731 3.71839H26.2242H24.9753V12.4529ZM55.9046 3.8118C55.4645 3.90241 55.0432 4.21388 54.8514 4.59037C54.6999 4.88783 54.6679 5.38934 54.7793 5.72178C54.8846 6.03606 55.2113 6.38901 55.5489 6.55336C55.7793 6.66545 55.8749 6.68413 56.2182 6.68413C56.5616 6.68413 56.6572 6.66545 56.8875 6.55336C57.2492 6.37733 57.5623 6.02793 57.6615 5.68984C57.8221 5.14232 57.6573 4.52134 57.2596 4.17525C56.9124 3.87312 56.3453 3.72101 55.9046 3.8118ZM60.9777 6.77754V8.34215H60.0824H59.187V9.3463V10.3504H60.0588H60.9306L60.931 14.2153C60.9312 16.5221 60.9507 18.2495 60.9792 18.5004C61.1843 20.3016 62.0036 21.0434 64.0002 21.2355C64.5495 21.2884 65.6605 21.2694 65.9139 21.2029C66.0195 21.1751 66.0199 21.1707 66.0199 20.2287V19.2824L65.3013 19.2595C64.7834 19.2431 64.5129 19.2132 64.3329 19.1526C63.9828 19.0347 63.6944 18.7689 63.5606 18.4405L63.4517 18.1735L63.4384 14.262L63.4251 10.3504H64.6989H65.9728V9.3463V8.34215H64.7005H63.4281V6.77754V5.21294H62.2029H60.9777V6.77754ZM94.7182 5.74855C93.4071 5.9647 92.3661 6.48853 91.3832 7.42678C90.3203 8.44149 89.7249 9.52443 89.5109 10.8328C89.4189 11.3945 89.4201 12.4651 89.5133 12.9946C89.8912 15.1424 91.615 17.0397 93.6759 17.576C94.1943 17.7109 95.2218 17.7697 95.7667 17.6956C95.9417 17.6718 96.0848 17.6613 96.0848 17.6723C96.0848 17.6833 95.0775 19.0463 93.8464 20.7011C92.6153 22.356 91.6081 23.7203 91.6081 23.7329C91.6081 23.7455 92.0668 24.0936 92.6273 24.5065C93.459 25.1189 93.6572 25.2456 93.704 25.1948C93.7802 25.112 100.246 16.4383 100.522 16.0484C101.465 14.7168 102.026 13.2801 102.1 12.0044C102.193 10.4159 101.634 8.97878 100.444 7.74218C99.4795 6.74055 98.4223 6.12522 97.1686 5.83598C96.5358 5.68998 95.3336 5.6471 94.7182 5.74855ZM16.3009 8.22782C14.173 8.60972 12.6993 10.0258 12.182 12.1858C12.0156 12.8808 11.9691 13.4313 11.9695 14.7038C11.9701 16.2493 12.0574 16.9579 12.3568 17.8465C12.9474 19.5998 14.1809 20.7444 15.9825 21.2112C16.6435 21.3825 17.9261 21.4266 18.6696 21.3037C20.6266 20.9801 21.9909 19.8826 22.5693 18.1666C22.8017 17.4772 22.9117 17.5427 21.5235 17.5445L20.3336 17.5462L20.17 17.9065C20.0451 18.1817 19.9282 18.3452 19.6752 18.5981C19.1368 19.1365 18.5027 19.3738 17.6004 19.3743C16.7184 19.3749 16.1207 19.1376 15.5216 18.5491C15.2041 18.2373 15.1024 18.0981 14.9224 17.7298C14.6426 17.1573 14.516 16.6381 14.4809 15.92L14.453 15.3478H18.6833H22.9136L22.8895 14.2386C22.8737 13.5066 22.8391 12.9864 22.7878 12.709C22.5486 11.4146 22.0827 10.4394 21.3338 9.66566C20.5855 8.89266 19.7075 8.43528 18.5731 8.22749C18.0807 8.1373 16.8041 8.13749 16.3009 8.22782ZM34.0665 8.22782C31.7044 8.65171 30.142 10.284 29.6809 12.8092C29.5935 13.2878 29.5794 13.5435 29.5772 14.694C29.5744 16.1082 29.6081 16.4832 29.8091 17.2807C30.367 19.4936 31.9266 20.9483 34.1189 21.3007C34.7042 21.3947 35.8615 21.3948 36.4084 21.3008C38.8656 20.8783 40.4272 19.1969 40.8316 16.5383C40.9315 15.8813 40.9307 13.606 40.8303 12.9361C40.444 10.3574 38.8329 8.64162 36.4084 8.22693C35.8844 8.1373 34.568 8.13777 34.0665 8.22782ZM46.8147 8.22356C44.6194 8.61883 43.0882 10.1593 42.5988 12.465C42.394 13.4299 42.3601 15.4521 42.5297 16.5844C42.7287 17.9126 43.2424 19.0048 44.0697 19.8589C44.727 20.5374 45.4571 20.9541 46.4602 21.223C46.8793 21.3354 46.985 21.3442 47.948 21.3467C49.0534 21.3496 49.3884 21.3065 50.0825 21.0723C51.5678 20.5712 52.5799 19.4857 52.9695 17.9757C53.0198 17.7809 53.0609 17.5719 53.0609 17.5113V17.4013L51.8807 17.4137L50.7005 17.4262L50.5917 17.7348C50.229 18.7638 49.2683 19.3168 47.948 19.2565C47.1189 19.2186 46.5322 18.9638 46.0032 18.4119C45.4884 17.8747 45.1647 17.1687 45.0198 16.2669C44.9216 15.6557 44.9532 13.3413 45.0662 12.8725C45.4077 11.4558 46.134 10.6234 47.2883 10.3256C47.6814 10.2242 48.3973 10.2239 48.7503 10.3249C49.5849 10.5637 50.3042 11.2578 50.541 12.0527L50.5973 12.242L51.8056 12.2545C52.9342 12.2661 53.0138 12.2615 53.0132 12.1844C53.0129 12.139 52.973 11.9127 52.9246 11.6815C52.5509 9.89592 51.056 8.56699 49.0375 8.22604C48.5268 8.13978 47.2878 8.13838 46.8147 8.22356ZM95.213 8.23225C94.2016 8.39352 93.3106 8.97453 92.7185 9.85865C92.0577 10.8453 91.9999 12.3312 92.5813 13.384C93.4123 14.8887 95.0381 15.5845 96.7282 15.1586C97.9383 14.8538 98.9978 13.7691 99.27 12.5564C99.3901 12.0212 99.3458 11.0979 99.1764 10.6073C98.8042 9.52947 97.8737 8.64764 96.7847 8.34093C96.4416 8.2443 95.5318 8.18139 95.213 8.23225ZM2.53139e-08 8.37718C0.000141396 8.39642 0.994544 11.281 2.20981 14.7874L4.41939 21.1626H5.79559H7.17179L9.43019 14.8574C10.6723 11.3896 11.7011 8.50468 11.7164 8.44644L11.7441 8.34061L10.4783 8.35303L9.21243 8.3655L7.52135 13.4009C6.59123 16.1704 5.81284 18.419 5.79163 18.398C5.77038 18.377 5.07253 16.1741 4.24084 13.5027C3.40916 10.8314 2.70678 8.5774 2.68006 8.49394L2.63138 8.34215H1.31555C0.591873 8.34215 -0.000141346 8.35793 2.53139e-08 8.37718ZM54.9575 14.7524L54.9695 21.1626L56.2064 21.175L57.4434 21.1875V14.7648V8.34215H56.1945H54.9456L54.9575 14.7524ZM66.9153 8.39329C66.9153 8.42215 67.9582 11.3349 69.2329 14.866L71.5505 21.2861L71.4435 21.6914C71.1382 22.8477 70.7478 23.3981 70.0492 23.6572C69.66 23.8015 69.0079 23.8659 68.435 23.8166L67.952 23.775V24.7423V25.7095L68.223 25.7479C68.7295 25.8196 70.1548 25.7932 70.5579 25.7047C72.2285 25.3379 73.2149 24.2785 74.1195 21.8799C74.3454 21.2809 78.8251 8.6008 78.8736 8.42313C78.8947 8.34551 78.8177 8.3414 77.5651 8.35308L76.2341 8.3655L74.6239 13.433C72.8875 18.8976 72.9558 18.6881 72.9216 18.6542C72.9088 18.6415 72.1701 16.3214 71.2802 13.4983L69.6619 8.3655L68.2886 8.35312C67.2954 8.34416 66.9153 8.35527 66.9153 8.39329ZM16.7718 10.185C15.7771 10.4359 15.0149 11.1589 14.6831 12.166C14.5435 12.5897 14.4667 12.9927 14.4667 13.3014V13.5264H17.4631H20.4595L20.4261 13.1644C20.2922 11.7132 19.5458 10.6733 18.3319 10.2466C17.9864 10.1252 17.1411 10.0918 16.7718 10.185ZM34.6944 10.2122C33.2845 10.4632 32.3887 11.5518 32.1413 13.3147C32.0761 13.7785 32.0761 15.7028 32.1413 16.1667C32.2223 16.7438 32.3608 17.2087 32.5932 17.6831C32.7735 18.0512 32.8757 18.1907 33.1929 18.5018C33.79 19.0873 34.3735 19.316 35.2718 19.3162C36.4718 19.3166 37.3612 18.7729 37.8857 17.7186C38.2999 16.8857 38.4055 16.2775 38.4055 14.7246C38.4055 13.5825 38.3321 12.9298 38.1394 12.3587C37.7708 11.266 37.056 10.5316 36.12 10.2838C35.7692 10.1909 35.0242 10.1535 34.6944 10.2122Z" fill="#878787"/>
</svg>
