<svg width="113" height="28" viewBox="0 0 113 28" fill="none" xmlns="http://www.w3.org/2000/svg">
<path fill-rule="evenodd" clip-rule="evenodd" d="M9.87912 0.0111559C9.33801 0.0699526 8.67279 0.195304 8.17033 0.333229C4.77438 1.2651 2.05976 3.98316 1.12907 7.38341C0.789012 8.62566 0.800029 8.40417 0.800029 14.0019C0.800029 19.5996 0.789012 19.3781 1.12907 20.6203C2.05976 24.0206 4.77438 26.7386 8.17033 27.6705C9.41102 28.011 9.18981 28 14.7804 28C20.371 28 20.1498 28.011 21.3905 27.6705C24.7865 26.7386 27.5011 24.0206 28.4318 20.6203C28.7718 19.3781 28.7608 19.5996 28.7608 14.0019C28.7608 9.34758 28.7545 8.94007 28.6753 8.46909C28.3965 6.81114 27.7525 5.31206 26.7355 3.95371C26.4083 3.51662 25.6061 2.68056 25.1435 2.29432C23.828 1.1962 22.2346 0.454234 20.4519 0.109727C19.9504 0.0127917 19.8233 0.0102679 14.9905 0.00194845C12.2691 -0.00277211 9.96897 0.0013876 9.87912 0.0111559ZM84.1689 3.68866C83.6177 3.87211 83.2022 4.23353 82.9643 4.73644C82.8291 5.0221 82.8152 5.093 82.8152 5.49649C82.8152 5.90368 82.8281 5.96761 82.9662 6.2486C83.1496 6.62167 83.5105 6.99427 83.8487 7.15995C84.3861 7.42323 85.1714 7.41692 85.7327 7.1449C86.0531 6.98964 86.4717 6.57451 86.6183 6.26669C86.7697 5.94873 86.8071 5.2421 86.6909 4.89189C86.5349 4.42137 86.0677 3.95296 85.546 3.74367C85.2712 3.63351 84.435 3.60009 84.1689 3.68866ZM9.92579 10.6123V15.7198L9.21394 15.7437C8.40541 15.7708 8.08953 15.8443 7.47281 16.1486C6.93814 16.4124 6.5227 16.8063 6.29743 17.2629C6.1306 17.601 6.12149 17.6427 6.12271 18.0658C6.12383 18.4555 6.14082 18.549 6.25686 18.8029C6.57839 19.5066 7.25715 19.8753 8.43818 19.988C9.61641 20.1005 10.4212 19.8181 11.2383 19.0054C11.6169 18.6289 11.7169 18.4965 11.876 18.1616C11.9797 17.9431 12.0875 17.6528 12.1155 17.5166C12.1493 17.3522 12.1664 16.2126 12.1664 14.1287V10.9885L13.1092 11.9694C13.6278 12.5089 14.3521 13.2552 14.7189 13.628L15.3858 14.3057L17.067 12.6233L18.7481 10.941V16.8414V22.7419H19.8684H20.9887V14.1305V5.51916L18.1885 8.32271L15.3882 11.1263L15.2785 11.01C15.0061 10.7213 11.5918 7.20384 10.8035 6.39985L9.92579 5.50477V10.6123ZM39.4021 9.44241C38.2426 9.62287 37.298 10.2741 36.645 11.3434L36.4629 11.6416L36.4503 10.6718L36.4376 9.70195H34.9682H33.4987V15.9181V22.1343H35.0607H36.6226L36.6375 18.3368L36.6523 14.5394L36.7592 14.1896C37.0702 13.1714 37.7477 12.4937 38.6801 12.2682C39.0462 12.1796 39.8569 12.1885 40.1739 12.2845C40.8861 12.5003 41.3144 13.0702 41.4795 14.0221C41.5099 14.1976 41.5276 15.7394 41.5276 18.2175V22.1356L43.0796 22.1232L44.6317 22.1109L44.656 18.3485C44.6798 14.6443 44.6819 14.5804 44.7835 14.2196C45.1288 12.9947 45.8995 12.3046 47.0357 12.2031C47.7221 12.1419 48.3761 12.3261 48.7782 12.694C49.0722 12.9631 49.2862 13.3428 49.4279 13.847C49.5294 14.208 49.5307 14.2571 49.5454 18.1739L49.5603 22.1356L51.1104 22.1232L52.6605 22.1109L52.6601 17.9512C52.6598 13.8094 52.6593 13.789 52.5519 13.1915C52.276 11.6581 51.7022 10.6663 50.7249 10.0338C50.1039 9.63189 49.4091 9.43194 48.4827 9.38857C46.6676 9.3036 45.3026 9.93424 44.3816 11.2833L44.1476 11.6262L44.0446 11.4236C43.6414 10.6296 43.0088 10.0339 42.2379 9.72214C41.4461 9.40189 40.3542 9.29421 39.4021 9.44241ZM95.1 9.42096C91.7933 9.83866 89.5345 12.1276 89.2843 15.3141C89.1265 17.3252 89.7152 19.0674 91.0114 20.425C91.8974 21.3529 93.0594 21.978 94.4617 22.2809C94.8733 22.3698 95.0976 22.3871 95.862 22.3891C96.6491 22.391 96.8376 22.3767 97.2551 22.2831C98.3235 22.0435 99.3718 21.575 100.062 21.0285C100.271 20.8627 100.436 20.7082 100.428 20.6852C100.42 20.6622 99.9582 20.1513 99.402 19.5499L98.3908 18.4565L98.0614 18.7735C96.417 20.3559 93.505 19.5954 92.6409 17.358C92.4405 16.839 92.3442 16.2267 92.3777 15.6844C92.4147 15.0864 92.5116 14.7252 92.7909 14.144C92.998 13.7131 93.0764 13.6046 93.452 13.23C93.8098 12.8731 93.9493 12.77 94.3216 12.5867C94.8019 12.3503 95.175 12.2474 95.722 12.2006C96.5135 12.1328 97.33 12.4831 98.0802 13.2122L98.3145 13.4399L99.4033 12.3491L100.492 11.2582L100.143 10.9421C99.3236 10.1987 98.4484 9.76491 97.2522 9.50916C96.7584 9.40353 95.6104 9.35651 95.1 9.42096ZM106.552 9.42311C104.855 9.6296 103.48 10.2076 102.506 11.1236L102.234 11.3793L103.054 12.2034L103.875 13.0275L104.128 12.8093C104.644 12.3642 105.425 11.9918 106.2 11.8206C106.673 11.7161 107.601 11.7172 108.069 11.8228C109.345 12.111 109.999 12.9057 110.005 14.1771L110.006 14.3758L108.967 14.3762C105.096 14.3777 102.901 15.1176 101.935 16.7468C101.568 17.365 101.439 17.9597 101.475 18.8704C101.503 19.587 101.636 20.035 101.975 20.5514C102.596 21.4989 103.655 22.1262 105.005 22.3476C105.695 22.4607 106.731 22.4221 107.351 22.2602C108.384 21.99 109.251 21.4107 109.776 20.6402C109.864 20.511 109.952 20.4051 109.971 20.4051C109.99 20.405 110.006 20.7944 110.006 21.2704V22.1357L111.395 22.1233L112.783 22.1109L112.797 18.5355C112.812 14.5643 112.777 13.5543 112.601 12.7867C112.344 11.6702 111.825 10.8476 111.04 10.3146C110.449 9.91321 109.734 9.63138 108.94 9.48756C108.459 9.40044 107.05 9.3624 106.552 9.42311ZM56.0095 14.0135C56.028 18.7968 56.023 18.7122 56.3457 19.6694C56.8071 21.0385 57.8603 21.9858 59.2827 22.3113C59.7874 22.4268 61.2687 22.4218 61.7396 22.3031C62.7693 22.0435 63.5647 21.4186 64.1911 20.377L64.3536 20.1067V21.1205V22.1343H65.824H67.2944V15.9181V9.70195H65.7566H64.2187L64.2017 13.406C64.1851 17.0308 64.1826 17.1182 64.0833 17.4951C63.7288 18.841 62.7673 19.6064 61.4268 19.6097C60.7625 19.6112 60.2934 19.4358 59.9205 19.0465C59.6394 18.7529 59.4865 18.468 59.3418 17.9678C59.1513 17.3097 59.1259 16.7388 59.1257 13.1022L59.1256 9.70195H57.5592H55.9928L56.0095 14.0135ZM70.2352 10.9405V12.1791H73.3627C75.0828 12.1791 76.4902 12.1954 76.4902 12.2155C76.4902 12.2355 75.0102 13.8182 73.2013 15.7325L69.9123 19.2132L69.9104 20.6739L69.9085 22.1347L75.2415 22.1228L80.5746 22.1109L80.5871 20.861L80.5995 19.6111L77.1141 19.599L73.6288 19.5871L76.9499 16.0583L80.2709 12.5296L80.2711 11.1158L80.2712 9.70195H75.2532H70.2352V10.9405ZM83.2235 15.9064L83.2353 22.1109L84.7874 22.1232L86.3395 22.1356V15.9187V9.70195H84.7756H83.2117L83.2235 15.9064ZM107.58 16.6246C106.456 16.7244 105.491 17.0434 104.975 17.4854C104.584 17.8207 104.452 18.5151 104.681 19.0362C104.987 19.7337 105.842 20.1164 106.972 20.0613C107.933 20.0144 108.588 19.7696 109.075 19.2765C109.559 18.7851 109.763 18.2101 109.805 17.2151L109.833 16.5725L108.927 16.5789C108.429 16.5824 107.823 16.603 107.58 16.6246Z" fill="#878787"/>
</svg>
