<svg width="71" height="28" viewBox="0 0 71 28" fill="none" xmlns="http://www.w3.org/2000/svg">
<path fill-rule="evenodd" clip-rule="evenodd" d="M17.2218 0.0749933C15.2937 0.42308 13.6578 1.82835 13.0444 3.66352C12.764 4.50249 12.7594 4.57707 12.7594 8.33611V11.76H16.1842C19.9443 11.76 20.0189 11.7555 20.8581 11.4751C22.4168 10.9543 23.7168 9.65477 24.2377 8.09648C24.5181 7.25751 24.5226 7.18293 24.5226 3.42389V0L21.0567 0.0042C18.2722 0.00756 17.5182 0.0214667 17.2218 0.0749933ZM2.95676 5.42808C2.95676 7.05838 2.97538 8.16135 3.00582 8.33308C3.31129 10.0571 4.66009 11.4056 6.38461 11.711C6.55639 11.7414 7.65966 11.76 9.2904 11.76H11.9192V9.13192C11.9192 7.50162 11.9006 6.39865 11.8701 6.22692C11.5647 4.50287 10.2159 3.15443 8.49134 2.84905C8.31956 2.81862 7.2163 2.8 5.58555 2.8H2.95676V5.42808ZM35.2822 4.85147C34.6404 4.97229 34.0365 5.08606 33.9402 5.10431L33.7651 5.13758V13.0941C33.7651 21.9234 33.7482 21.4272 34.0739 22.1087C34.266 22.5106 34.6871 22.9817 35.0106 23.1566C35.1343 23.2235 35.3931 23.3274 35.5856 23.3874C35.8978 23.4849 36.0241 23.4965 36.7526 23.495C37.2019 23.4941 37.7355 23.4659 37.9384 23.4324C38.3467 23.3649 39.2753 23.1154 39.3343 23.0572C39.355 23.0368 39.2919 22.6062 39.1942 22.1003C39.0168 21.1818 39.0164 21.1806 38.8999 21.201C38.8357 21.2123 38.5836 21.2579 38.3397 21.3024C37.8104 21.399 37.3427 21.3792 37.1182 21.2507C37.0223 21.1959 36.918 21.0726 36.846 20.9292L36.7293 20.6967L36.7164 12.6583L36.7037 4.62L36.5764 4.62593C36.5064 4.62919 35.9241 4.73069 35.2822 4.85147ZM41.1783 4.82575C40.6569 4.97611 40.2712 5.36214 40.1016 5.90333C39.86 6.67478 40.0341 7.44749 40.5574 7.92559C40.8458 8.18916 41.1153 8.2992 41.5698 8.33905C42.4022 8.41204 43.0253 8.07842 43.371 7.37473C43.4884 7.13575 43.4978 7.07345 43.4978 6.53333C43.4978 6.00059 43.4871 5.92727 43.3748 5.68773C43.2088 5.33377 42.9587 5.06861 42.6473 4.91629C42.4241 4.80713 42.321 4.78795 41.893 4.77624C41.576 4.76756 41.3183 4.78543 41.1783 4.82575ZM62.7813 10.3882C60.6149 10.7794 58.8753 12.3378 58.1376 14.5484C57.8103 15.5289 57.6859 16.6361 57.7611 17.8971C57.8094 18.7063 57.8129 18.7348 57.9537 19.46C58.3669 21.5872 59.4925 22.9552 61.209 23.4162C61.6055 23.5227 61.7485 23.5367 62.473 23.5395C63.3342 23.5429 63.719 23.4888 64.2524 23.2893C65.2085 22.9317 65.9588 22.0989 66.4198 20.8837C66.5375 20.5735 66.5448 20.5816 66.6264 21.1144C66.7544 21.9492 67.2846 23.0693 67.7614 23.5121L67.8785 23.6209L68.9887 23.1738C69.5993 22.9279 70.1155 22.7267 70.1358 22.7267C70.1562 22.7267 70.1791 23.0889 70.1868 23.5317C70.1945 23.9744 70.2004 22.7617 70.2 20.8367C70.1994 18.1824 70.1962 17.9795 70.1866 19.9967L70.174 22.6567L70.0787 22.5167C69.6624 21.9047 69.2934 20.7501 69.0691 19.3575C69.0032 18.9483 68.9876 18.2929 68.9649 14.9579L68.9381 11.0392L68.4946 10.932C67.8709 10.7812 66.3619 10.5142 65.517 10.4054C64.6584 10.2947 63.3451 10.2865 62.7813 10.3882ZM40.3108 15.9483L40.3236 21.3967L40.4482 21.7377C40.6704 22.3457 41.0393 22.8233 41.5239 23.13C42.1841 23.548 43.5241 23.6389 44.515 23.333C45.0105 23.1799 44.9891 23.2602 44.8137 22.2133L44.6613 21.3033H44.1711C43.6076 21.3033 43.472 21.2474 43.3422 20.9614C43.2714 20.8053 43.2632 20.33 43.2516 15.645L43.2387 10.5H41.7684H40.298L40.3108 15.9483ZM45.8551 15.1095C45.8551 18.0132 45.8731 19.8654 45.9036 20.1145C46.0442 21.2608 46.4694 22.2065 47.0949 22.7637C47.7748 23.3696 48.7358 23.5939 50.3037 23.5127C51.3697 23.4575 52.4066 23.2121 53.1371 22.8422C54.945 21.9267 56.037 20.0024 56.4734 16.9633C56.6849 15.4901 56.7795 13.4594 56.6897 12.32C56.6352 11.6285 56.5072 10.5994 56.4678 10.5355C56.4557 10.516 55.765 10.5 54.9329 10.5C53.7425 10.5 53.4246 10.5124 53.4412 10.5583C53.4529 10.5904 53.5074 10.9212 53.5622 11.2933C53.6382 11.8086 53.6675 12.2803 53.685 13.2708C53.7523 17.0854 53.121 19.763 51.8811 20.9216C51.3322 21.4345 50.4966 21.5865 49.7875 21.3025C49.373 21.1365 49.0226 20.5657 48.8888 19.8387C48.8603 19.6837 48.8426 17.8444 48.8426 15.0437V10.5H47.3488H45.8551V15.1095ZM63.7566 12.4143C62.4955 12.5492 61.6552 13.2572 61.2374 14.5368C61.018 15.2088 60.9554 15.811 60.961 17.1967C60.968 18.95 61.074 19.6959 61.4197 20.4253C61.7354 21.0916 62.1873 21.4189 62.8439 21.4569C63.4966 21.4947 63.9415 21.2986 64.4889 20.7318C65.01 20.1921 65.3848 19.5064 65.6431 18.62C65.9282 17.642 65.9367 17.5441 65.9603 15L65.9819 12.6632L65.5228 12.5601C65.0768 12.4598 64.366 12.3613 64.1768 12.3733C64.1254 12.3767 63.9364 12.3951 63.7566 12.4143ZM4.6184 12.675C2.60297 13.0389 0.98642 14.4901 0.356248 16.5013L0.226153 16.9167L0.213082 20.6383L0.200012 24.36H3.6028C7.33874 24.36 7.41604 24.3553 8.25468 24.0751C9.8134 23.5543 11.1133 22.2548 11.6342 20.6965C11.9147 19.8575 11.9192 19.7829 11.9192 16.0239V12.6L8.45325 12.6042C5.66874 12.6076 4.91477 12.6215 4.6184 12.675ZM12.7594 17.039C12.7594 20.7997 12.7704 21.5522 12.8315 21.9631C13.2841 25.0105 15.7498 27.4755 18.798 27.928C19.209 27.989 19.9617 28 23.7234 28H28.1636V23.561C28.1636 19.8003 28.1526 19.0478 28.0916 18.6369C27.6389 15.5895 25.1733 13.1245 22.1251 12.672C21.714 12.611 20.9614 12.6 17.1997 12.6H12.7594V17.039Z" fill="#878787"/>
</svg>
